# xmcd CD database file generated by LOLA_Freedb v0.9beta0
# 
# Track frame offsets:
#      150
#      15805
#      31920
#      49855
#      61527
#      75857
#      100490
#      112467
#      132715
#      144155
#      152935
#      168235
#      178445
# 
# Disc length: 2616 seconds
# 
# Revision: 1 
# Processed by: cddbd v1.5.2PL0 Copyright (c) Steve Scherf et al.
# Submitted via: LOLA_Freedb v0.9beta0
# 
DISCID=a70a360d
DTITLE=Doyle Dykes - Fingerstyle Guitar
DYEAR=2002
DGENRE=Instrumental
TTITLE0=Doyle Dykes - Twin Six Shooters
TTITLE1=Jazz in the Box
TTITLE2=Laguna Sand
TTITLE3=Doerita Forever
TTITLE4=Caleb's Report
TTITLE5=The Great Roundup
TTITLE6=White Rose for Heidi
TTITLE7=How Great Thou Art
TTITLE8=Mana Melody
TTITLE9=Zaccheus
TTITLE10=Mission of St. Holli
TTITLE11=Miss Haley's Music Box
TTITLE12=Amazing Grace
EXTD=
EXTT0=
EXTT1=
EXTT2=
EXTT3=
EXTT4=
EXTT5=
EXTT6=
EXTT7=
EXTT8=
EXTT9=
EXTT10=
EXTT11=
EXTT12=
PLAYORDER=
